<svg id="레이어_1" data-name="레이어 1" xmlns="http://www.w3.org/2000/svg" viewBox="0 0 40 40"><defs><style>.cls-1{fill:#040000;fill-rule:evenodd;}</style></defs><path id="path9249" class="cls-1" d="M8.92,10.87l-.18.32H7.46v.57a.55.55,0,0,1-.64.5.56.56,0,0,1-.48-.57v-.5H4.66v.61a.48.48,0,1,1-1,0v-.61H2.1v.72s-.46.18-.48.36v2.11c0,.17.13.35.48.35v1.76c0,.17.18.17.18.22h11c.39-.05.7,1.2.7,1.2h5.85c1.39,0,1.69.74,1.69,1.14a2.21,2.21,0,0,0,2.26,2.22h3a.85.85,0,0,1,.89.53c.18.53,2.3,7.25,2.3,7.25a2.55,2.55,0,0,0-.53.18l.7,1.77c.06,0,6.72-1.59,6.72-1.59,1-.27.53-.71.18-1.59C36,25.36,34,20,33.47,19s1.14-1,2.14-1.14a1,1,0,0,0,1-1.46,1.79,1.79,0,0,1-2.26-.83A8.32,8.32,0,0,1,34,14.38a2.26,2.26,0,0,1,2.3-1.06c.3-.72.31-1,.06-1.26a.55.55,0,0,1-.22.3c.24.27.06.42-.16.61-.32-.62-1-.06-1.28,0-.39,0-.12-.44-.24-.45s-.46.18-.46-.06c.53,0,.48-.11.59-.24a1.06,1.06,0,0,1-.17-.2c-.06.23-.09.18-.59.18l-.53-.35v-.47H31.24l-.18-.56H28.88l-.16.32H26.54a.61.61,0,0,0-.69.64H22.06l-.27-.64h-10L11.67,11H10.42l-.16-.16Zm.14.16h1l.17.16H9Zm20.36.16h1.35l.17.64h-1.2s0-.16,0-.2A.47.47,0,0,0,29.42,11.19Zm-.12.22a.26.26,0,0,1,.26.26.3.3,0,0,1,0,.15l-.36-.36A.25.25,0,0,1,29.3,11.41Zm-.2.1.35.36a.25.25,0,0,1-.15.05.26.26,0,0,1-.26-.25A.25.25,0,0,1,29.1,11.51Zm-8.79.08h1.15l0,1.52H20.31c-.14,0-.21,0-.21-.31v-1C20.1,11.69,20.12,11.59,20.31,11.59Zm6.29-.08h2.3v.32H26.36C26.36,11.64,26.38,11.51,26.6,11.51Zm-18,.08H19.86c-.19.13-.12.51-.12.72H8.58Zm-6.32,0h.8v.15a.88.88,0,0,0,.28.65H2.26Zm2.72,0h.8v.21a.9.9,0,0,0,.22.59H4.7A.92.92,0,0,0,5,11.74Zm2.64,0H8v.8H7.41a.94.94,0,0,0,.21-.59Zm27.63.09-.29,0a.55.55,0,0,0,0,.17c0,.17.17.29.25.26s.11-.19.06-.36A.37.37,0,0,0,35.25,11.68Zm.2,0a.78.78,0,0,0,0,.16c0,.18.07.33.16.33s.16-.15.16-.33a.49.49,0,0,0,0-.12A1.35,1.35,0,0,0,35.45,11.68Zm-.71.11a.47.47,0,0,0-.24.15v0a.44.44,0,0,0,.08.11c.12.14.27.2.33.14s0-.21-.09-.35Zm1.27,0a.6.6,0,0,0-.12.11c-.11.14-.15.3-.08.35s.22,0,.33-.14a.89.89,0,0,0,.09-.16A.69.69,0,0,0,36,11.81Zm-4.47,0h.82l.16.48H26.18V12h5.36Zm1.22,0h.15l1.26,3.74a1.72,1.72,0,0,0,2,1c.17.3,0,.78-.92.79-.2,0-.16-.15,0-.15.5,0,.55-.32.21-.51a2.8,2.8,0,0,1-.73-.29,1.66,1.66,0,0,1-.69-.87Zm-10.42.24h3.6v.32h-3.6ZM2.1,12.14v.72l-.24.79V12.4C1.83,12.18,1.92,12.14,2.1,12.14ZM32,12.47h.83l.88,2.72h-.41a.38.38,0,0,0-.37-.32H32v-.5l.16,0a.75.75,0,0,0,0-1.49H32Zm-3.44,0h.24v2.72h-.24Zm.48,0h.24v2.72h-.24Zm.48,0h.24v2.72h-.24Zm.48,0h.24v2.72H30Zm.48,0h.24v2.72H30.5Zm.48,0h.24v2.72H31Zm.48,0h.24v.58a.71.71,0,0,0,0,1.14v1h-.24Zm-22.8,0H19.79c0,.38,0,.88.55.88h5.19c.73,0,.72-.75.72-.88h2.17v2.72H13.72a5.82,5.82,0,0,0-.56-.56H8.66Zm13.64,0h3.63s0,.56-.36.56h-3C22.26,13,22.3,12.85,22.3,12.47Zm-20,.08H3.58a.89.89,0,0,0,1,0H6.15a.9.9,0,0,0,.56.19,1,1,0,0,0,.57-.19H8.1v2.08H2.34ZM32.16,13a.55.55,0,0,1,.28.09l-.72.72a.55.55,0,0,1-.09-.28A.53.53,0,0,1,32.16,13Zm.43.24a.55.55,0,0,1,.09.29.53.53,0,0,1-.52.52.55.55,0,0,1-.29-.09Zm-19.21,2a2.81,2.81,0,0,1,.72,1.6v.85c0-.53-.48-1.18-.72-1.18Zm13.12.22h7.29a1.5,1.5,0,0,0,.3.69l-.84-.45H26.5Zm-12.7.08H21a.87.87,0,0,0-.53.79.86.86,0,0,0,.29.64.88.88,0,0,0-.48-.15l-6,.05A2.6,2.6,0,0,0,13.8,15.51Zm11.82,0a.73.73,0,0,1,0,1.45v-.17a.56.56,0,0,0,.51-.56.57.57,0,0,0-.51-.56ZM8,15.56v.51H3.33A31.16,31.16,0,0,1,8,15.56Zm.56,0h4.56v.48H8.58Zm14.8.06,0,0h1.82v.16H23.45s0,0,.05.08h1.88V16H23.54s0,.07,0,.08h2v.16h-2s0,0,0,.08h1.8v.08H23.57c0,.06,0,.1,0,.08h1.66v.16H23.54a.19.19,0,0,1,0,.08h1.56v.16h-1.6a.64.64,0,0,1-.08.14Zm-2.16,0h2v1.2h-2a.59.59,0,0,1-.56-.6A.59.59,0,0,1,21.22,15.67Zm10.72.16h1.2v.32h-1.2Zm-5.43,0h5.32a5.36,5.36,0,0,1-2.66.7A5.3,5.3,0,0,1,26.51,15.83Zm7,.12c.47.2,1.48.77,1.48.77.2.12.24.25,0,.25-1.45.06-1.83.84-1.83.84a2.25,2.25,0,0,1-1-1.36C32.23,16.58,34.07,16.91,33.47,16Zm-4.33,1a.47.47,0,0,1,.47.47.44.44,0,0,1-.13.32L29,17Zm-.34.15.45.78h-.11a.47.47,0,0,1-.47-.47A.46.46,0,0,1,28.8,17.13Zm-7.53,0h1.6a.13.13,0,0,1,.1.12.12.12,0,0,1-.1.12h-1.6a.12.12,0,0,1-.1-.12A.13.13,0,0,1,21.27,17.11Zm2.3,0h2.71c.06,0,.11.06.11.12a.13.13,0,0,1-.11.12H23.57a.13.13,0,0,1-.11-.12C23.46,17.17,23.51,17.13,23.57,17.11Zm-2.42.72h1.68a1.54,1.54,0,0,0,.77,2.88h3.85l.11.24H23.77a2,2,0,0,1-2-1.93A1.67,1.67,0,0,0,21.15,17.83Zm2.3,0h1.1a2.7,2.7,0,0,1,.32,2.23,3,3,0,0,0,.26-2.23H26a.9.9,0,0,1,.61.29,1.37,1.37,0,0,1-.92,2.35h-2a1.36,1.36,0,0,1-.92-2.35A.88.88,0,0,1,23.45,17.83Zm10.39,9.59a5.16,5.16,0,0,1,1.52.2L30.2,28.9a5.37,5.37,0,0,1,2.41-1.32A5.19,5.19,0,0,1,33.84,27.42Zm2.27.36.45,1.3-.46.11-.48-1.3Zm-1,.25.45,1.29-5.28,1.24-.49-1.2Z"/></svg>