<svg xmlns="http://www.w3.org/2000/svg" viewBox="0 0 38.83 5.37"><defs><style>.cls-1{fill:#040000;fill-rule:evenodd;}</style></defs><g id="레이어_2" data-name="레이어 2"><g id="레이어_1-2" data-name="레이어 1"><path class="cls-1" d="M4.33.1H.25S0,.11,0,.33V5.08a.23.23,0,0,0,.24.25H1.8s.2-.06.2-.2v-1H5A1.51,1.51,0,0,0,6.34,2.66V1.56S6.34.1,4.33.1Zm0,2c0,.34-.23.35-.23.35H2v-.7l2,0C4.37,1.73,4.33,2.11,4.33,2.11ZM12.55,0H9.38S7.25-.09,7.25,1.89v1.6S7.33,5.36,9,5.36h3.56A1.76,1.76,0,0,0,14.43,3.9V1.69A1.67,1.67,0,0,0,12.55,0Zm-.13,3.26c0,.35-.44.39-.44.39H9.71c-.4,0-.43-.49-.43-.49v-1c0-.44.6-.44.6-.44H12l.44.41,0,1.15Zm3.1-3V5.07s0,.26.26.26h4.87s.26,0,.26-.26V3.87s.06-.29-.28-.29H17.54V.36a.26.26,0,0,0-.28-.28H15.8S15.52.08,15.52.33Zm6.3,0V5.1a.22.22,0,0,0,.23.23h1.47s.22,0,.22-.23V.29a.2.2,0,0,0-.23-.23H22.05A.23.23,0,0,0,21.82.29ZM25,1.6V3.67s0,1.69,2.09,1.69h3.24a1.53,1.53,0,0,0,1.52-1.61V3.17s0-.16-.21-.16H30s-.23.08-.23.23,0,.41-.27.41H27.29s-.35,0-.35-.57v-.8s0-.57.53-.57h1.9s.42,0,.42.3.14.29.33.29h1.44A.25.25,0,0,0,31.74,2V1.32A1.61,1.61,0,0,0,30,0H26.91S25,0,25,1.6ZM32.9.3V5.08a.23.23,0,0,0,.23.23H38.6s.23,0,.23-.23V3.94s0-.26-.26-.26H34.85V3.41h3.44a.21.21,0,0,0,.21-.22v-1a.25.25,0,0,0-.26-.26H34.88V1.65h3.61a.24.24,0,0,0,.25-.25V.28S38.69.05,38.5.05H33.12S32.9.1,32.9.3Z"/></g></g></svg>