<!--?xml version="1.0" standalone="no"?--><svg version="1.0" xmlns="http://www.w3.org/2000/svg" width="300.000000pt" height="300.000000pt" viewBox="0 0 300.000000 300.000000" preserveAspectRatio="xMidYMid meet">
<metadata>
  <rdf:rdf xmlns:rdf="http://www.w3.org/1999/02/22-rdf-syntax-ns#" xmlns:rdfs="http://www.w3.org/2000/01/rdf-schema#" xmlns:dc="http://purl.org/dc/elements/1.1/">
    <rdf:description dc:title="violence domestic " dc:publisher="Hiox" dc:date="2015-03-26" dc:format="image/svg+xml" dc:language="en">
      <dc:creator>
        <rdf:bag>
          <rdf:li>svgimages.com</rdf:li>
        </rdf:bag>
      </dc:creator>
    </rdf:description>
  </rdf:rdf>
</metadata>
<g transform="translate(0.000000,300.000000) scale(0.100000,-0.100000)" fill="#060606" stroke="none">
<path d="M2081 2814 c-13 -16 -21 -41 -21 -64 0 -36 11 -49 153 -195 83 -87
151 -164 149 -172 -3 -13 -89 -199 -138 -296 -48 -96 -21 -167 63 -167 51 0
60 10 121 140 27 58 72 154 101 213 32 68 51 121 51 144 0 38 8 28 -336 381
-36 36 -48 42 -82 42 -32 0 -45 -6 -61 -26z" id="node1" class="node"></path>
<path d="M1959 2636 c-90 -32 -144 -85 -173 -169 -43 -127 13 -267 130 -327
71 -36 178 -35 250 2 65 34 107 87 129 162 28 97 21 115 -102 238 -106 106
-109 108 -153 108 -25 -1 -61 -7 -81 -14z" id="node2" class="node"></path>
<path d="M2137 2087 c-62 -34 -97 -77 -97 -117 0 -14 54 -132 120 -263 66
-130 117 -237 113 -237 -4 0 -48 7 -98 16 -49 8 -104 13 -123 9 -26 -5 -72
-44 -209 -178 -96 -95 -181 -184 -189 -199 -34 -66 0 -153 70 -176 69 -22 95
-7 256 153 164 163 138 151 270 120 30 -7 80 -16 110 -20 55 -7 110 -31 110
-48 0 -5 -15 -66 -34 -136 -64 -238 -69 -267 -57 -303 6 -18 47 -85 91 -148
43 -63 109 -159 146 -213 76 -111 105 -132 172 -124 66 7 107 51 107 116 0 51
-26 95 -197 337 -32 45 -58 89 -58 98 0 34 100 407 115 428 8 13 15 29 15 37
0 8 9 24 20 35 10 12 22 39 25 61 5 36 -3 58 -93 235 -195 384 -265 520 -271
520 -3 0 -19 -32 -36 -71 -35 -82 -81 -129 -126 -129 -60 0 -119 57 -119 114
0 15 9 44 20 66 32 62 29 63 -53 17z" id="node3" class="node"></path>
<path d="M375 1563 c-52 -15 -127 -80 -158 -138 -17 -31 -22 -58 -22 -120 0
-70 3 -86 29 -128 30 -50 85 -102 118 -110 15 -4 18 -2 13 11 -8 20 -53 229
-62 283 -4 30 0 40 30 72 42 45 81 49 124 13 34 -29 57 -107 100 -343 3 -18 8
-33 11 -33 3 0 29 16 58 36 152 105 136 325 -31 432 -32 21 -54 26 -115 28
-41 2 -84 0 -95 -3z" id="node4" class="node"></path>
<path d="M1554 1497 c-42 -23 -50 -51 -28 -88 12 -21 71 -41 80 -28 3 6 13 8
22 4 9 -3 13 -3 9 1 -4 4 -3 12 2 18 18 23 21 64 6 70 -8 3 -15 11 -15 18 0
16 -51 19 -76 5z" id="node5" class="node"></path>
<path d="M365 1440 c-53 -21 -56 -63 -16 -245 12 -55 31 -147 42 -205 12 -58
27 -117 35 -132 15 -29 58 -44 90 -31 12 4 100 64 197 133 203 144 221 167
176 224 -36 45 -79 36 -184 -39 -49 -35 -95 -68 -101 -73 -22 -20 -57 -33 -64
-25 -4 4 -12 33 -18 63 -47 257 -69 330 -98 330 -7 0 -18 2 -26 4 -7 3 -22 1
-33 -4z" id="node6" class="node"></path>
<path d="M1310 1364 c0 -25 -18 -44 -43 -44 -14 0 -17 -3 -10 -12 6 -7 10 -28
10 -47 0 -21 6 -37 17 -43 9 -5 14 -13 11 -19 -4 -5 3 -9 14 -9 11 0 24 -8 30
-17 9 -17 11 -17 24 2 12 16 18 17 30 7 12 -10 16 -9 20 9 4 15 11 20 22 15
13 -5 15 -1 10 14 -5 14 -2 20 9 20 18 0 21 16 6 25 -8 5 -7 11 1 21 9 11 8
15 -6 20 -10 4 -15 14 -12 25 4 14 -1 17 -22 16 -19 -2 -26 3 -25 15 2 17 0
17 -28 0 -28 -16 -30 -16 -44 2 -14 20 -14 20 -14 0z" id="node7" class="node"></path>
<path d="M803 1260 c-17 -10 -37 -29 -44 -42 l-12 -23 22 20 c58 51 156 5 156
-74 0 -48 -21 -72 -117 -137 -37 -26 -68 -49 -68 -51 0 -3 10 -19 22 -36 43
-64 92 -106 147 -128 31 -12 60 -25 64 -29 5 -4 -20 -30 -55 -57 -77 -60 -147
-149 -154 -195 -7 -38 19 -150 41 -184 20 -31 127 -79 210 -94 94 -17 515 -21
515 -5 0 8 43 16 123 24 203 20 201 19 213 77 4 21 0 37 -14 54 -20 24 -24 25
-189 30 l-168 5 1 57 c1 48 6 63 33 96 39 50 51 109 37 182 -15 72 -46 120
-98 155 -63 41 -85 57 -293 204 -104 74 -208 142 -230 152 -52 24 -102 24
-142 -1z" id="node8" class="node"></path>
<path d="M1559 1251 c-62 -20 -24 -113 42 -99 19 4 36 27 34 47 -6 48 -33 67
-76 52z" id="node9" class="node"></path>
</g>
<g transform="translate(0.000000,300.000000) scale(0.100000,-0.100000)" fill="#A2A2A2" stroke="none">

</g>
</svg>